name analog
datacolumns 19
datarows 23
range 0.5740000000000001 0.585
endheader
time	ground_force_vx	ground_force_vy	ground_force_vz	ground_force_px	ground_force_py	ground_force_pz	l_ground_force_vx	l_ground_force_vy	l_ground_force_vz	l_ground_force_px	l_ground_force_py	l_ground_force_pz	ground_torque_x	ground_torque_y	ground_torque_z	l_ground_torque_x	l_ground_torque_y	l_ground_torque_z
0.5740000000000001	-0.0	-0.0	-0.0	-0.0	-0.0	-0.0	12.80235767364502	2.215012550354004	-502.4567565917969	-0.0	-0.0	-0.0	-0.0	-0.0	-0.0	136047.78125	-18428.65234375	3510.024658203125
0.5745	-0.0	-0.0	-0.0	-0.0	-0.0	-0.0	11.5606689453125	1.847719669342041	-511.0745239257813	-0.0	-0.0	-0.0	-0.0	-0.0	-0.0	138820.78125	-18809.23828125	3148.353271484375
0.5750000000000001	-0.0	-0.0	-0.0	-0.0	-0.0	-0.0	10.50358772277832	3.2110095024108887	-521.1146240234375	-0.0	-0.0	-0.0	-0.0	-0.0	-0.0	141525.140625	-19302.765625	2860.810791015625
0.5755	-0.0	-0.0	-0.0	-0.0	-0.0	-0.0	9.602407455444336	4.225075721740723	-531.0311889648438	-0.0	-0.0	-0.0	-0.0	-0.0	-0.0	144816.078125	-19607.869140625	2522.10888671875
0.5760000000000001	-0.0	-0.0	-0.0	-0.0	-0.0	-0.0	7.651001930236816	4.60724687576294	-542.95947265625	-0.0	-0.0	-0.0	-0.0	-0.0	-0.0	148252.1875	-19794.51953125	1897.7955322265625
0.5765	-0.0	-0.0	-0.0	-0.0	-0.0	-0.0	5.189356803894043	6.1161651611328125	-556.0827026367188	-0.0	-0.0	-0.0	-0.0	-0.0	-0.0	151935.359375	-20029.138671875	1157.2227783203125
0.577	-0.0	-0.0	-0.0	-0.0	-0.0	-0.0	3.378436088562012	7.919376850128174	-571.6765747070312	-0.0	-0.0	-0.0	-0.0	-0.0	-0.0	155741.5	-20275.560546875	343.1351928710937
0.5775	-0.0	-0.0	-0.0	-0.0	-0.0	-0.0	2.0553553104400635	9.170514106750488	-583.751953125	-0.0	-0.0	-0.0	-0.0	-0.0	-0.0	159949.421875	-20515.404296875	-179.21142578125
0.578	-0.0	-0.0	-0.0	-0.0	-0.0	-0.0	1.41937255859375	10.43702793121338	-598.2374267578125	-0.0	-0.0	-0.0	-0.0	-0.0	-0.0	163999.203125	-21230.15625	-451.4225463867188
0.5785	-0.0	-0.0	-0.0	-0.0	-0.0	-0.0	1.0568962097167969	12.06207275390625	-614.6156005859375	-0.0	-0.0	-0.0	-0.0	-0.0	-0.0	168300.546875	-21797.681640625	-759.7923583984375
0.579	-0.0	-0.0	-0.0	-0.0	-0.0	-0.0	0.015418604016304	13.071609497070312	-627.3950805664062	-0.0	-0.0	-0.0	-0.0	-0.0	-0.0	172487.46875	-21955.34765625	-1111.0126953125
0.5795	-0.0	-0.0	-0.0	-0.0	-0.0	-0.0	-0.960257351398468	12.83763027191162	-638.6901245117188	-0.0	-0.0	-0.0	-0.0	-0.0	-0.0	175272.421875	-22499.462890625	-1316.6934814453125
0.58	-0.0	-0.0	-0.0	-0.0	-0.0	-0.0	-1.1846718788146973	13.128637313842772	-650.2529907226562	-0.0	-0.0	-0.0	-0.0	-0.0	-0.0	177611.796875	-22238.48046875	-1567.074462890625
0.5805	-0.0	-0.0	-0.0	-0.0	-0.0	-0.0	-1.8629264831542969	12.53379249572754	-652.9759521484375	-0.0	-0.0	-0.0	-0.0	-0.0	-0.0	178930.09375	-22285.68359375	-1678.396240234375
0.581	-0.0	-0.0	-0.0	-0.0	-0.0	-0.0	-2.024362802505493	11.481819152832031	-657.19775390625	-0.0	-0.0	-0.0	-0.0	-0.0	-0.0	179981.421875	-22050.458984375	-1589.4261474609375
0.5815	-0.0	-0.0	-0.0	-0.0	-0.0	-0.0	-1.870996356010437	10.277453422546388	-662.2453002929688	-0.0	-0.0	-0.0	-0.0	-0.0	-0.0	180225.546875	-21612.359375	-1490.017822265625
0.582	-0.0	-0.0	-0.0	-0.0	-0.0	-0.0	-1.475548505783081	8.238210678100586	-661.0079956054688	-0.0	-0.0	-0.0	-0.0	-0.0	-0.0	179917.375	-21559.099609375	-1390.447021484375
0.5825	-0.0	-0.0	-0.0	-0.0	-0.0	-0.0	-1.306047439575195	6.568480014801025	-662.3023071289062	-0.0	-0.0	-0.0	-0.0	-0.0	-0.0	179176.859375	-21142.23828125	-1266.58349609375
0.583	-0.0	-0.0	-0.0	-0.0	-0.0	-0.0	-0.9592557549476624	5.346397399902344	-658.9794921875	-0.0	-0.0	-0.0	-0.0	-0.0	-0.0	178305.796875	-20702.02734375	-1115.48095703125
0.5835	-0.0	-0.0	-0.0	-0.0	-0.0	-0.0	-0.8067418336868286	3.5993330478668213	-657.3333129882812	-0.0	-0.0	-0.0	-0.0	-0.0	-0.0	177986.65625	-20226.982421875	-992.5248413085938
0.584	-0.0	-0.0	-0.0	-0.0	-0.0	-0.0	-0.8320853114128113	2.401455879211426	-657.037109375	-0.0	-0.0	-0.0	-0.0	-0.0	-0.0	177068.6875	-19505.255859375	-981.7113647460938
0.5845	-0.0	-0.0	-0.0	-0.0	-0.0	-0.0	-1.7487585544586182	1.4215954542160034	-656.0225219726562	-0.0	-0.0	-0.0	-0.0	-0.0	-0.0	176169.828125	-19043.947265625	-1359.7535400390625
0.585	-0.0	-0.0	-0.0	-0.0	-0.0	-0.0	-1.9174100160598757	0.5469686985015869	-653.9486083984375	-0.0	-0.0	-0.0	-0.0	-0.0	-0.0	175842.40625	-18735.1640625	-1392.5733642578125
